<svg version="1.1" id="Layer_1" xmlns="http://www.w3.org/2000/svg" xmlns:xlink="http://www.w3.org/1999/xlink" x="0px" y="0px"
	 width="100%" viewBox="0 0 400 400" enable-background="new 0 0 400 400" xml:space="preserve">
<path fill="#FE3622" opacity="1.000000" stroke="none" 
	d="
M277.000000,401.000000 
	C184.695358,401.000000 92.890717,401.000000 1.043040,401.000000 
	C1.043040,267.737030 1.043040,134.474045 1.043040,1.105529 
	C134.221252,1.105529 267.442596,1.105529 400.831970,1.105529 
	C400.831970,134.333160 400.831970,267.666565 400.831970,401.000000 
	C359.807465,401.000000 318.653717,401.000000 277.000000,401.000000 
M102.921089,179.116318 
	C102.921089,179.116318 102.946388,179.219696 102.600769,178.708481 
	C102.047401,178.486969 101.494041,178.265442 101.003044,178.013138 
	C101.003044,178.013138 100.954483,178.063538 101.001556,177.389282 
	C100.951057,176.942291 100.900558,176.495316 100.661812,175.428543 
	C96.956459,171.394745 95.636505,171.500824 92.773659,176.578522 
	C92.615456,177.185867 92.457260,177.793198 92.257164,178.305176 
	C92.257164,178.305176 92.351044,178.350311 91.694504,178.162949 
	C91.469337,178.129837 91.244179,178.096741 90.856575,178.272079 
	C90.755684,178.536148 90.791420,178.784271 90.905083,179.619110 
	C90.887634,180.022339 90.870186,180.425568 90.438744,181.061554 
	C90.322960,181.695557 90.207184,182.329544 90.059135,183.904922 
	C89.840927,195.882126 89.527061,207.859283 89.523758,219.836548 
	C89.523338,221.359543 90.867149,223.174820 92.082306,224.338898 
	C93.979935,226.156754 96.166290,227.772385 98.462708,229.058868 
	C114.700806,238.155655 131.036255,247.078918 147.261017,256.199158 
	C155.647247,260.913239 163.777161,266.087738 172.213440,270.706146 
	C175.608612,272.564819 179.514206,273.491119 183.118835,274.866241 
	C183.118835,274.866241 183.121048,274.793396 183.260635,275.465576 
	C188.651764,278.871948 193.704575,283.283264 199.576904,285.260376 
	C202.509506,286.247711 206.939270,282.784210 210.693451,281.338043 
	C211.620132,280.981079 212.703125,280.836273 213.457474,280.258636 
	C217.007538,277.540283 220.468216,274.705231 223.980545,271.978851 
	C223.980545,271.978851 223.921066,271.942139 224.718994,272.012238 
	C229.791367,269.692780 234.879715,267.407440 239.928894,265.038544 
	C242.227295,263.960205 244.504730,262.812592 246.690506,261.524689 
	C249.665970,259.771515 252.463272,257.707031 255.481049,256.036285 
	C262.704742,252.036972 270.084900,248.316910 277.261810,244.237671 
	C282.267517,241.392487 287.005035,238.079437 291.934875,235.095169 
	C294.182861,233.734329 295.949036,234.271210 295.946320,237.176590 
	C295.942291,241.479416 295.852692,245.804642 295.354889,250.068420 
	C295.233582,251.107391 293.380737,252.728424 292.324371,252.728119 
	C289.054810,252.727158 288.902405,254.634384 288.986694,256.993073 
	C288.986694,256.993073 288.976868,256.960236 288.186218,256.928192 
	C283.107300,258.782349 278.028381,260.636505 272.774658,262.554474 
	C272.836578,263.573792 272.915527,264.873932 272.679260,266.618347 
	C272.173615,266.807037 271.667999,266.995728 270.647766,266.816711 
	C264.283722,269.595856 257.749084,272.048615 251.609695,275.257538 
	C246.708160,277.819458 242.227371,281.215698 237.672577,284.402740 
	C233.711319,287.174438 229.907928,290.171783 226.008514,293.004913 
	C226.008514,293.004913 226.060104,293.051788 225.222137,292.971619 
	C223.820282,293.024994 222.418411,293.078339 220.414658,293.377533 
	C219.287415,294.598938 218.160172,295.820343 216.273773,297.113403 
	C212.866776,298.706482 209.454605,300.288696 206.056351,301.900238 
	C205.194122,302.309143 204.242630,303.350433 203.559814,303.181396 
	C199.656006,302.215149 195.400375,302.978363 191.846954,299.932739 
	C190.204086,298.524597 187.204346,298.699615 184.896454,298.107697 
	C184.896454,298.107697 184.869217,298.194611 184.864517,297.462097 
	C184.123001,295.228058 183.381485,292.994019 182.798981,291.239014 
	C180.263336,291.910980 178.107727,292.482239 176.000961,293.002441 
	C176.000961,293.002441 175.959808,293.060608 175.826523,292.382294 
	C174.230682,291.013885 172.712219,289.540741 171.025757,288.295044 
	C163.384674,282.650879 153.704834,280.045410 147.373077,272.410095 
	C146.797150,271.715607 145.690720,271.413635 144.782196,271.050598 
	C140.848434,269.478638 136.864975,268.025574 132.973862,266.356171 
	C132.008804,265.942139 130.673721,264.922455 130.620743,264.108734 
	C130.408646,260.851593 128.075043,261.124878 125.893196,260.262085 
	C121.337502,258.460571 117.074501,255.906036 112.728050,253.591751 
	C108.205849,251.183884 103.769966,248.608826 99.192207,246.314636 
	C98.297112,245.866058 96.915199,246.292953 95.775627,246.447433 
	C93.143211,246.804306 90.521713,247.241730 88.379272,247.571976 
	C88.710243,250.681076 89.060425,254.270599 89.503891,257.848541 
	C89.579994,258.462585 89.897980,259.243164 90.367500,259.581726 
	C95.524818,263.300415 100.381035,267.719452 107.507812,267.375122 
	C107.507812,267.375122 107.556244,267.484314 107.505806,268.198395 
	C108.699158,269.454346 109.694489,271.034058 111.121994,271.907196 
	C115.910759,274.836243 121.963402,276.562592 125.400665,280.575256 
	C128.364578,284.035339 130.657059,284.543640 134.870102,284.134766 
	C136.580734,285.101532 138.291367,286.068298 140.370361,287.601013 
	C142.537674,289.494019 144.506851,291.708313 146.922775,293.198151 
	C149.905457,295.037476 153.196014,296.437775 156.475586,297.714233 
	C158.663086,298.565704 161.063583,298.869965 163.456497,299.393463 
	C163.456497,299.393463 163.494431,299.476593 163.593597,300.156891 
	C171.447601,309.413666 182.963303,312.509430 193.218369,317.719147 
	C193.752777,317.990631 194.514923,317.813782 195.102478,317.881256 
	C195.102478,317.881256 195.111176,317.804504 195.281662,318.492859 
	C198.139694,322.563019 201.518158,322.607605 205.611313,320.232971 
	C210.732086,317.262146 215.808533,313.895996 221.353790,312.054749 
	C228.622726,309.641174 233.334198,304.406097 238.520844,299.346130 
	C238.520844,299.346130 238.629196,299.385071 239.410690,299.598358 
	C240.229233,299.588959 241.219894,299.879974 241.840240,299.524597 
	C249.796631,294.966644 257.714844,290.341003 265.582977,285.632629 
	C266.095581,285.325836 266.120789,284.204559 266.438690,283.294281 
	C266.438690,283.294281 266.614624,283.334198 267.458923,283.548309 
	C270.440308,284.045685 273.041656,283.977600 272.948059,279.944122 
	C272.948059,279.944122 272.881134,279.911438 273.664276,279.967590 
	C278.691895,277.735779 283.813751,275.688263 288.704224,273.188202 
	C290.887573,272.072083 294.517578,271.853821 293.910156,267.902985 
	C293.910156,267.902985 293.839966,267.871979 294.625580,267.946381 
	C299.769897,265.342041 304.987030,262.865875 309.995728,260.022675 
	C310.970581,259.469299 311.606232,257.485352 311.599396,256.165405 
	C311.535767,243.858444 311.467560,231.545425 310.965576,219.251923 
	C310.865936,216.812271 309.445007,213.046921 307.684753,212.373917 
	C304.956970,211.330933 301.010956,211.549576 298.305359,212.799850 
	C293.614624,214.967514 289.503967,218.374710 285.101959,221.186768 
	C279.417236,224.818237 273.685272,228.375732 267.337097,232.129028 
	C260.977875,235.542847 254.549835,238.835358 248.273453,242.395233 
	C234.291687,250.325531 220.466995,258.537811 206.372833,266.260254 
	C203.878418,267.626984 200.397964,267.341614 197.356171,267.501160 
	C195.771057,267.584320 194.149597,266.974243 192.374619,266.731232 
	C192.374619,266.731232 192.304962,266.567139 192.428467,265.838959 
	C192.218475,265.227997 192.194489,264.307343 191.770493,264.052643 
	C185.781281,260.454742 179.795944,256.842712 173.692520,253.444534 
	C166.162155,249.251907 157.810638,246.151703 151.167740,240.875107 
	C146.326752,237.029770 141.489304,235.130493 135.919678,234.117722 
	C135.919678,234.117722 135.947281,234.217484 135.587677,233.713165 
	C135.029144,233.492462 134.470612,233.271744 133.974655,233.021805 
	C133.974655,233.021805 133.952362,233.087173 134.008438,232.418716 
	C133.687881,231.394165 133.677948,229.807281 132.998718,229.432083 
	C126.227623,225.691895 119.385712,222.073380 112.483955,218.578201 
	C106.365372,215.479614 103.782898,209.745697 106.532516,203.605850 
	C107.215218,202.081406 109.947166,200.226624 111.317772,200.515274 
	C114.272598,201.137482 117.014046,202.946640 119.736984,204.460464 
	C125.563965,207.699966 131.323135,211.061462 137.111252,214.370926 
	C147.017334,220.034866 156.949356,225.653992 166.823700,231.372711 
	C176.258224,236.836716 185.699127,242.295547 195.003342,247.975937 
	C199.006775,250.420120 202.712875,250.592972 206.700623,248.233704 
	C214.286072,243.745911 221.956772,239.399689 229.476456,234.805450 
	C230.899445,233.936081 231.786011,232.188736 232.924698,230.917664 
	C232.924698,230.917664 232.858734,230.890610 233.640350,230.934235 
	C243.305923,225.976044 253.015259,221.100723 262.620117,216.027557 
	C268.102661,213.131760 273.414886,209.913513 279.448944,207.172714 
	C283.303009,211.852539 283.086761,211.689331 286.738770,206.850601 
	C288.308075,204.771347 290.767639,202.849060 293.210541,202.067154 
	C296.704102,200.948929 296.253845,199.340210 295.470581,196.714767 
	C295.980225,196.464096 296.489899,196.213425 297.368683,196.475525 
	C301.027679,197.691116 305.006317,195.552689 308.308899,190.257874 
	C312.214020,187.368607 312.115204,183.180756 312.615662,179.140900 
	C313.870544,179.516495 315.125427,179.892090 316.190155,180.210754 
	C315.757233,174.828857 315.219849,170.128387 315.042969,165.414368 
	C314.850372,160.281754 315.241180,155.117569 314.850372,150.007446 
	C314.717773,148.273666 312.980347,146.662613 311.806763,144.363876 
	C310.509827,142.952515 309.212891,141.541153 308.107513,139.452255 
	C308.492828,138.269089 308.878113,137.085907 309.268219,135.888031 
	C303.564056,134.359390 301.175201,135.130280 298.138397,139.607590 
	C298.138397,139.607590 298.151001,139.940155 297.738892,140.306274 
	C297.523895,140.604416 297.308899,140.902557 296.666168,141.725922 
	C293.562531,143.504135 290.471130,145.304108 287.352356,147.055496 
	C282.581696,149.734558 277.792145,152.380066 272.969452,154.275940 
	C271.658020,153.309479 269.571991,151.248413 269.153870,151.544296 
	C264.504211,154.834702 258.176910,156.823029 257.769623,164.467453 
	C257.553497,164.680511 257.314026,164.862915 256.659851,165.313141 
	C256.410645,165.528305 256.182922,165.764206 255.529144,166.059235 
	C255.529144,166.059235 255.080002,166.067780 254.778549,165.494278 
	C252.518967,165.329926 250.259399,165.165573 247.546127,164.598312 
	C246.766159,164.184662 245.986191,163.771027 245.483063,163.504181 
	C244.264053,166.575775 243.173599,169.323471 242.037247,172.093552 
	C242.037247,172.093552 242.019180,172.045807 241.655609,172.336258 
	C241.422882,172.543610 241.216019,172.774185 241.080032,173.032516 
	C241.080032,173.032516 241.068832,173.076370 240.352081,173.096710 
	C239.253983,174.106903 238.155884,175.117096 236.655563,176.661301 
	C228.480560,181.443283 220.269028,186.165054 212.172516,191.076416 
	C211.043900,191.761032 210.481277,193.378693 209.593140,194.715897 
	C209.593140,194.715897 209.436249,194.667343 208.665253,194.418076 
	C203.051651,194.327423 197.438034,194.236771 191.892380,194.120285 
	C191.892380,194.120285 191.889755,194.192932 191.761597,193.552856 
	C190.633820,192.163498 189.506027,190.774155 188.192322,189.155746 
	C189.335724,188.373093 190.494080,187.580200 192.205704,186.408585 
	C190.762878,186.023712 189.793518,185.412231 189.265823,185.677917 
	C182.589005,189.039841 177.944839,184.344482 172.863342,181.596405 
	C165.663773,177.702881 160.054489,171.119324 151.747620,169.071564 
	C151.450165,168.998230 151.228195,168.659500 150.940872,168.498199 
	C142.787354,163.921722 134.603088,159.399185 126.484489,154.761658 
	C122.400345,152.428711 118.434326,149.888977 114.414894,147.442749 
	C114.433594,146.916489 114.452286,146.390228 114.470985,145.863968 
	C117.393959,144.552673 120.250008,143.054184 123.257423,141.979095 
	C126.743263,140.732941 132.590530,143.367859 132.280502,136.191437 
	C132.271851,135.990677 132.717834,135.713791 133.000626,135.565384 
	C137.879669,133.004730 142.987350,130.798965 147.587906,127.811615 
	C151.991623,124.952087 155.870148,121.283730 160.000000,118.000305 
	C160.000000,118.000305 159.974350,117.974831 160.644974,118.044174 
	C161.093674,118.020798 161.542374,117.997421 162.776306,117.954399 
	C164.967728,116.974953 167.171936,116.022964 169.347702,115.009895 
	C172.963440,113.326347 176.963165,109.695267 180.070648,110.350281 
	C184.588135,111.302505 185.396667,109.209053 187.620728,106.741600 
	C190.487061,103.561600 194.318130,101.251167 197.658554,98.625298 
	C199.095673,99.863495 200.164413,100.784286 201.432785,101.877090 
	C202.449371,100.690750 203.255356,99.750175 204.603302,98.177170 
	C207.154114,105.367661 218.252975,102.010178 218.024506,110.778740 
	C220.917892,110.625923 223.433014,109.718079 225.077133,110.544014 
	C231.306122,113.673164 237.366180,117.185242 243.259079,120.917770 
	C246.365784,122.885529 248.714539,127.009750 251.909180,127.650986 
	C256.550110,128.582535 259.104767,130.990280 261.492157,134.419876 
	C261.773865,134.824600 262.719391,134.927933 263.347809,134.905685 
	C269.403168,134.691208 274.028778,136.703583 275.814941,143.397919 
	C277.499207,141.424377 278.558289,139.434067 280.214783,138.412903 
	C282.897736,136.758957 285.972839,135.741241 289.813904,134.043076 
	C286.731750,129.685944 284.368561,126.345161 282.386749,122.863922 
	C282.539856,122.540779 282.692963,122.217636 282.846039,121.894493 
	C282.562561,122.261215 282.279114,122.627945 281.232483,122.999985 
	C279.714539,121.965141 278.226227,120.882812 276.669403,119.910210 
	C275.379669,119.104454 273.861298,117.628365 272.701721,117.842651 
	C269.054474,118.516632 267.935577,116.995148 268.384827,114.012177 
	C265.564209,113.691277 262.353241,114.297302 260.886261,112.972366 
	C256.889221,109.362320 251.739075,108.208145 247.432281,105.454437 
	C238.564377,99.784447 229.868866,93.844849 220.829926,87.835014 
	C220.963852,86.838654 221.168488,85.316284 221.222443,84.914894 
	C216.358521,83.909805 211.897598,83.336090 207.669724,82.016014 
	C203.480240,80.707886 199.821808,79.711105 195.287384,81.675980 
	C190.930969,83.563721 185.856750,83.794983 180.697067,84.834938 
	C180.807114,85.581543 181.053955,87.256187 181.289719,88.855698 
	C173.491180,91.697235 167.478714,96.889313 160.847458,101.068901 
	C156.179672,104.010956 151.252625,106.541641 146.441345,109.256004 
	C143.884491,110.721733 141.608856,112.848488 138.917511,113.802437 
	C135.008240,115.188103 131.909775,119.349281 126.939880,117.613068 
	C126.627670,117.503998 125.444870,118.899246 125.203346,119.747353 
	C124.184525,123.324921 122.400055,124.412788 119.943748,122.135963 
	C116.817192,124.945831 114.039932,127.446915 111.256523,129.941147 
	C109.811127,131.236389 108.354881,132.519516 106.143585,133.937561 
	C102.201164,135.834229 98.369370,138.026703 94.288399,139.552856 
	C89.160164,141.470657 88.057770,146.120163 89.700249,149.571060 
	C91.233215,152.791855 93.387016,156.795410 98.362282,157.895111 
	C101.985237,158.695892 105.146034,161.623947 108.488144,163.644531 
	C110.307457,164.744476 111.982376,166.122284 113.884186,167.039276 
	C118.976494,169.494675 124.213539,171.651794 129.289368,174.139099 
	C140.724228,179.742508 149.849976,189.368439 162.331543,193.177704 
	C162.788406,193.317139 163.173553,193.700851 163.583496,193.983246 
	C166.927902,196.287064 170.281097,198.578400 173.608673,200.906296 
	C175.278625,202.074570 176.777130,203.552856 178.568741,204.469696 
	C183.252701,206.866562 188.462814,208.453690 192.701904,211.443115 
	C197.413284,214.765579 204.143326,215.493469 208.521622,211.919128 
	C210.292480,210.473450 212.253571,209.183182 214.300598,208.171036 
	C217.612091,206.533646 222.222931,206.070541 224.187927,203.505188 
	C227.115097,199.683731 230.775665,198.944092 234.681992,197.845367 
	C235.460434,197.626419 236.628723,197.400497 236.862885,196.854355 
	C239.279999,191.216599 242.982040,191.324677 247.803223,195.078598 
	C248.106827,192.964752 248.044037,191.462265 248.575592,190.212570 
	C249.182068,188.786743 250.028687,187.071533 251.271667,186.372681 
	C258.341888,182.397690 265.611389,178.778793 272.714905,174.860733 
	C278.391205,171.729889 282.719666,166.496017 290.414642,166.770004 
	C295.536163,166.952362 296.829865,167.049408 295.682739,172.315109 
	C294.982117,175.531235 294.576538,178.811630 294.011475,182.000259 
	C294.011475,182.000259 294.061737,182.046906 293.405426,181.943329 
	C291.991333,181.851547 290.247467,181.177872 289.216522,181.762146 
	C282.398254,185.626404 275.763672,189.812912 269.002838,193.781311 
	C266.333099,195.348358 263.528503,196.700592 260.723206,198.018539 
	C255.466324,200.488281 250.142685,202.817078 244.911148,205.338074 
	C244.328827,205.618698 244.269882,206.845825 243.779663,207.490662 
	C243.090088,208.397751 242.366608,209.425369 241.410751,209.960342 
	C234.382095,213.894012 227.220901,217.596878 220.279373,221.675262 
	C218.843384,222.518936 218.152237,224.630356 217.021393,226.069931 
	C217.021393,226.069931 217.138077,226.127701 216.343445,226.089172 
	C214.890015,226.407242 213.450668,226.836441 211.980545,227.022827 
	C207.293777,227.617065 202.579971,228.645859 197.906281,228.507111 
	C193.537567,228.377457 189.206726,226.972153 184.972778,226.072250 
	C184.972778,226.072250 184.881088,226.159637 184.888382,225.412048 
	C183.933411,224.169968 183.237091,222.474533 181.981979,221.758484 
	C173.009995,216.639648 163.869400,211.815384 154.918686,206.660873 
	C153.031738,205.574234 151.708176,203.509262 149.882080,201.647354 
	C148.540558,202.058121 146.659088,202.634216 144.861816,203.150452 
	C144.861816,203.150452 144.827316,203.247833 144.763351,202.521149 
	C141.929825,200.055038 139.463394,196.608017 136.168427,195.374939 
	C132.187332,193.885071 128.965805,192.504181 128.533432,189.980957 
	C124.515816,188.065033 121.803177,186.811005 119.126236,185.484924 
	C115.700089,183.787750 112.302704,182.032516 108.063774,180.162720 
	C106.943489,180.220932 105.823204,180.279144 104.787651,180.315048 
	C104.787651,180.315048 104.803383,180.401245 104.498360,179.848053 
	C103.938347,179.613358 103.378334,179.378677 102.921089,179.116318 
M280.653870,174.307449 
	C280.582825,174.444794 280.511780,174.582123 280.440735,174.719467 
	C280.528442,174.641342 280.616150,174.563217 280.653870,174.307449 
z"/>
<path fill="#FCF3F0" opacity="1.000000" stroke="none" 
	d="
M271.162354,267.184418 
	C271.667999,266.995728 272.173615,266.807037 273.196411,266.337646 
	C278.801331,263.024689 283.889099,259.992462 288.976868,256.960236 
	C288.976868,256.960236 288.986694,256.993073 289.328674,256.938538 
	C292.470764,254.945328 297.315979,253.331604 297.685333,251.006805 
	C298.768433,244.189407 298.071014,237.089172 298.071014,229.078247 
	C288.497772,234.530029 279.998322,239.300446 271.566345,244.187256 
	C255.664062,253.403503 239.800644,262.686737 223.921066,271.942139 
	C223.921066,271.942139 223.980545,271.978851 223.614456,271.979919 
	C217.063995,275.493225 210.809692,278.889984 204.728195,282.572174 
	C202.137283,284.140900 200.044281,284.214569 197.426743,282.642670 
	C192.767273,279.844574 187.900879,277.391052 183.121048,274.793396 
	C183.121048,274.793396 183.118835,274.866241 182.971542,274.561707 
	C182.264587,273.897491 181.719833,273.511780 181.143143,273.181854 
	C152.855682,256.999786 124.541473,240.863983 96.330841,224.549088 
	C94.496735,223.488403 92.268448,221.077209 92.235580,219.257874 
	C91.989357,205.627167 92.249458,191.987305 92.351044,178.350311 
	C92.351044,178.350311 92.257164,178.305176 92.654228,178.284332 
	C95.685692,178.196838 98.320084,178.130188 100.954483,178.063538 
	C100.954483,178.063538 101.003044,178.013138 101.118835,178.301956 
	C101.805214,178.800415 102.375801,179.010056 102.946388,179.219696 
	C102.946388,179.219696 102.921089,179.116318 103.014381,179.406281 
	C103.672913,179.931229 104.238144,180.166245 104.803383,180.401245 
	C104.803383,180.401245 104.787651,180.315048 104.929420,180.578369 
	C106.173050,181.403885 107.274918,181.966080 108.422997,182.528168 
	C108.469215,182.528046 108.468903,182.435608 108.644424,182.671249 
	C109.182999,183.032349 109.546043,183.157806 110.116028,183.543045 
	C121.824417,190.284485 133.325867,196.766159 144.827316,203.247833 
	C144.827316,203.247833 144.861816,203.150452 145.002960,203.469391 
	C158.389755,211.245453 171.635422,218.702545 184.881088,226.159637 
	C184.881088,226.159637 184.972778,226.072250 185.081116,226.399307 
	C189.500854,229.223618 193.752548,231.834625 198.160461,234.147964 
	C199.461487,234.830734 201.577393,235.370239 202.679642,234.779922 
	C207.625214,232.131317 212.340012,229.051758 217.138077,226.127701 
	C217.138077,226.127701 217.021393,226.069931 217.423843,226.074493 
	C225.904434,221.487198 234.013550,216.948822 242.054352,212.292450 
	C259.408752,202.242706 276.728058,192.132401 294.061737,182.046906 
	C294.061737,182.046906 294.011475,182.000259 294.401276,181.960419 
	C295.915192,180.625519 297.941650,179.376556 298.010559,178.027588 
	C298.347778,171.426010 298.163391,164.797806 298.163391,157.296570 
	C295.819244,158.498016 294.213104,159.237961 292.686432,160.116043 
	C263.539490,176.879883 234.400238,193.657166 205.265411,210.442062 
	C202.964066,211.767868 201.065353,213.008942 198.035568,211.255371 
	C163.754868,191.414536 129.361710,171.768051 95.020363,152.031815 
	C90.674706,149.534332 90.737854,144.555344 95.021851,141.993546 
	C99.016159,139.604996 103.009071,137.214081 107.336639,134.750763 
	C137.412949,117.629990 167.176193,100.619011 196.864685,83.478531 
	C199.804504,81.781258 202.057678,81.643372 205.058945,83.419975 
	C217.374146,90.709969 229.855240,97.719437 242.262573,104.854240 
	C254.955841,112.153496 267.650085,119.451363 280.310638,126.807083 
	C284.774719,129.400681 284.748199,132.645767 280.659515,135.557037 
	C277.879150,137.536728 275.639923,136.997192 272.911987,135.419754 
	C250.295029,122.341576 227.635147,109.336624 204.893799,96.476517 
	C203.157120,95.494431 200.160614,94.817734 198.658508,95.646423 
	C186.287582,102.471252 174.131699,109.685837 161.609802,116.818260 
	C160.864120,117.227783 160.419235,117.601311 159.974365,117.974838 
	C159.974350,117.974831 160.000000,118.000305 159.636169,118.009216 
	C142.637527,127.522041 126.002724,137.025955 108.508537,147.020874 
	C121.384666,154.370712 133.169769,161.150970 145.005920,167.840866 
	C160.612885,176.662033 176.259933,185.412216 191.889755,194.192932 
	C191.889755,194.192932 191.892380,194.120285 192.044403,194.420074 
	C197.957748,199.533447 203.707306,200.483536 209.436249,194.667343 
	C209.436249,194.667343 209.593140,194.715897 209.957001,194.553955 
	C220.224838,188.629013 230.128815,182.866028 240.381348,177.041626 
	C260.782104,165.507492 280.828125,154.023895 300.890900,142.569687 
	C305.953949,139.679123 309.742554,141.785370 309.770844,147.553146 
	C309.827972,159.194183 309.689850,170.837021 309.849426,182.476135 
	C309.889648,185.408051 308.783630,186.918701 306.311890,188.298904 
	C300.388062,191.606705 294.649841,195.246857 288.859650,198.778137 
	C288.882599,198.803391 288.884369,198.735703 288.617554,198.744614 
	C288.074493,198.961868 287.798248,199.170197 287.487366,199.365997 
	C287.452728,199.353455 287.415009,199.416718 287.079773,199.482513 
	C284.438141,200.981934 282.131744,202.415558 279.829254,203.866409 
	C279.833191,203.883652 279.820923,203.837753 279.473633,203.886917 
	C276.395386,205.494965 273.650909,207.030640 270.935822,208.616699 
	C258.239014,216.033707 245.550323,223.464645 232.858734,230.890594 
	C232.858734,230.890610 232.924698,230.917664 232.565964,230.918839 
	C223.241592,236.038742 214.200958,241.032486 205.350937,246.343857 
	C202.242691,248.209305 199.839035,248.190552 196.688782,246.368912 
	C170.019180,230.947037 143.257004,215.685226 116.513397,200.391449 
	C112.537331,198.117676 108.513161,195.927994 103.635315,193.211609 
	C103.635315,200.871124 103.545906,207.497421 103.726227,214.116379 
	C103.755165,215.178635 104.744064,216.634262 105.704224,217.186615 
	C115.069794,222.574554 124.523643,227.809021 133.952362,233.087189 
	C133.952362,233.087173 133.974655,233.021805 134.100784,233.305115 
	C134.800369,233.798111 135.373825,234.007797 135.947281,234.217484 
	C135.947281,234.217484 135.919678,234.117722 136.055969,234.421722 
	C154.896484,245.339523 173.600723,255.953323 192.304962,266.567139 
	C192.304962,266.567139 192.374619,266.731232 192.679108,266.946960 
	C196.367432,268.391205 198.893326,272.988190 203.195297,270.533081 
	C224.870346,258.163086 246.450104,245.626175 268.408875,233.067291 
	C279.704071,226.732956 290.642792,220.460007 301.608398,214.234344 
	C306.338470,211.548874 309.697449,213.423218 309.733856,218.865967 
	C309.813782,230.819000 309.900238,242.776077 309.621918,254.723068 
	C309.579163,256.558899 308.020813,258.912598 306.454346,260.051392 
	C302.463531,262.952637 298.071472,265.301849 293.839966,267.871979 
	C293.839966,267.871979 293.910156,267.902985 293.546997,267.910065 
	C286.416260,271.915253 279.648682,275.913330 272.881134,279.911438 
	C272.881134,279.911438 272.948059,279.944122 272.599030,279.938110 
	C270.371552,281.066132 268.493073,282.200165 266.614624,283.334198 
	C266.614624,283.334198 266.438690,283.294281 266.076599,283.474976 
	C256.686066,288.898773 247.657623,294.141907 238.629181,299.385071 
	C238.629196,299.385071 238.520844,299.346130 238.157928,299.492126 
	C227.737076,305.406586 217.543808,310.955872 207.683548,317.044434 
	C203.349060,319.720886 199.518738,320.968872 195.111176,317.804504 
	C195.111176,317.804504 195.102478,317.881256 194.948486,317.578705 
	C184.361160,311.342957 173.927795,305.409760 163.494431,299.476593 
	C163.494431,299.476593 163.456497,299.393463 163.183960,299.167114 
	C158.218140,296.228638 153.587524,293.399078 148.807770,290.848999 
	C145.994888,289.348297 142.945190,288.291504 140.001999,287.035034 
	C138.291367,286.068298 136.580734,285.101532 134.532593,283.622498 
	C125.315468,277.901611 116.435860,272.692963 107.556244,267.484314 
	C107.556244,267.484314 107.507812,267.375122 107.221428,267.153198 
	C102.911987,264.599854 98.994102,262.056152 94.836540,259.996155 
	C90.610924,257.902496 91.447800,254.115021 92.593094,251.470444 
	C93.846237,248.576828 96.937859,248.050690 100.219910,249.991699 
	C111.656876,256.755524 123.198166,263.345093 134.756256,269.901398 
	C148.460251,277.674927 162.222687,285.345459 175.959808,293.060608 
	C175.959808,293.060608 176.000961,293.002441 176.146362,293.320709 
	C179.150925,295.157532 182.010071,296.676056 184.869217,298.194611 
	C184.869217,298.194611 184.896454,298.107697 185.036926,298.424011 
	C189.613571,301.315552 193.981430,304.022644 198.530533,306.379913 
	C199.779282,307.027008 201.886398,307.223938 203.057480,306.603760 
	C207.864258,304.058044 212.461823,301.117340 217.372864,298.292358 
	C217.939896,298.193359 218.195145,298.015747 218.422089,297.736633 
	C218.469116,297.743408 218.497818,297.652863 218.774017,297.583557 
	C219.506012,297.189392 219.961807,296.864532 220.424561,296.536255 
	C220.431534,296.532837 220.444473,296.532257 220.769821,296.438202 
	C222.750137,295.246674 224.405121,294.149231 226.060104,293.051788 
	C226.060104,293.051788 226.008514,293.004913 226.378662,293.011414 
	C241.553329,284.406769 256.357849,275.795593 271.162354,267.184418 
z"/>
<path fill="#E94736" opacity="1.000000" stroke="none" 
	d="
M161.910614,116.782272 
	C174.131699,109.685837 186.287582,102.471252 198.658508,95.646423 
	C200.160614,94.817734 203.157120,95.494431 204.893799,96.476517 
	C227.635147,109.336624 250.295029,122.341576 272.911987,135.419754 
	C275.639923,136.997192 277.879150,137.536728 280.659515,135.557037 
	C284.748199,132.645767 284.774719,129.400681 280.310638,126.807083 
	C267.650085,119.451363 254.955841,112.153496 242.262573,104.854240 
	C229.855240,97.719437 217.374146,90.709969 205.058945,83.419975 
	C202.057678,81.643372 199.804504,81.781258 196.864685,83.478531 
	C167.176193,100.619011 137.412949,117.629990 107.315582,134.496399 
	C106.941498,134.146332 106.922516,133.977219 106.903542,133.808121 
	C108.354881,132.519516 109.811127,131.236389 111.256523,129.941147 
	C114.039932,127.446915 116.817192,124.945831 119.943748,122.135963 
	C122.400055,124.412788 124.184525,123.324921 125.203346,119.747353 
	C125.444870,118.899246 126.627670,117.503998 126.939880,117.613068 
	C131.909775,119.349281 135.008240,115.188103 138.917511,113.802437 
	C141.608856,112.848488 143.884491,110.721733 146.441345,109.256004 
	C151.252625,106.541641 156.179672,104.010956 160.847458,101.068901 
	C167.478714,96.889313 173.491180,91.697235 181.289719,88.855698 
	C181.053955,87.256187 180.807114,85.581543 180.697067,84.834938 
	C185.856750,83.794983 190.930969,83.563721 195.287384,81.675980 
	C199.821808,79.711105 203.480240,80.707886 207.669724,82.016014 
	C211.897598,83.336090 216.358521,83.909805 221.222443,84.914894 
	C221.168488,85.316284 220.963852,86.838654 220.829926,87.835014 
	C229.868866,93.844849 238.564377,99.784447 247.432281,105.454437 
	C251.739075,108.208145 256.889221,109.362320 260.886261,112.972366 
	C262.353241,114.297302 265.564209,113.691277 268.384827,114.012177 
	C267.935577,116.995148 269.054474,118.516632 272.701721,117.842651 
	C273.861298,117.628365 275.379669,119.104454 276.669403,119.910210 
	C278.226227,120.882812 279.714539,121.965141 281.616241,122.999992 
	C282.000000,123.000000 282.005371,123.004387 282.005371,123.004387 
	C284.368561,126.345161 286.731750,129.685944 289.813904,134.043076 
	C285.972839,135.741241 282.897736,136.758957 280.214783,138.412903 
	C278.558289,139.434067 277.499207,141.424377 275.814941,143.397919 
	C274.028778,136.703583 269.403168,134.691208 263.347809,134.905685 
	C262.719391,134.927933 261.773865,134.824600 261.492157,134.419876 
	C259.104767,130.990280 256.550110,128.582535 251.909180,127.650986 
	C248.714539,127.009750 246.365784,122.885529 243.259079,120.917770 
	C237.366180,117.185242 231.306122,113.673164 225.077133,110.544014 
	C223.433014,109.718079 220.917892,110.625923 218.024506,110.778740 
	C218.252975,102.010178 207.154114,105.367661 204.603302,98.177170 
	C203.255356,99.750175 202.449371,100.690750 201.432785,101.877090 
	C200.164413,100.784286 199.095673,99.863495 197.658554,98.625298 
	C194.318130,101.251167 190.487061,103.561600 187.620728,106.741600 
	C185.396667,109.209053 184.588135,111.302505 180.070648,110.350281 
	C176.963165,109.695267 172.963440,113.326347 169.347702,115.009895 
	C167.171936,116.022964 164.967728,116.974953 162.369736,117.666222 
	C161.945648,117.179451 161.928131,116.980858 161.910614,116.782272 
z"/>
<path fill="#E74738" opacity="1.000000" stroke="none" 
	d="
M106.523560,133.872833 
	C106.922516,133.977219 106.941498,134.146332 106.981537,134.569824 
	C103.009071,137.214081 99.016159,139.604996 95.021851,141.993546 
	C90.737854,144.555344 90.674706,149.534332 95.020363,152.031815 
	C129.361710,171.768051 163.754868,191.414536 198.035568,211.255371 
	C201.065353,213.008942 202.964066,211.767868 205.265411,210.442062 
	C234.400238,193.657166 263.539490,176.879883 292.686432,160.116043 
	C294.213104,159.237961 295.819244,158.498016 298.163391,157.296570 
	C298.163391,164.797806 298.347778,171.426010 298.010559,178.027588 
	C297.941650,179.376556 295.915192,180.625519 294.414764,181.991867 
	C294.576538,178.811630 294.982117,175.531235 295.682739,172.315109 
	C296.829865,167.049408 295.536163,166.952362 290.414642,166.770004 
	C282.719666,166.496017 278.391205,171.729889 272.714905,174.860733 
	C265.611389,178.778793 258.341888,182.397690 251.271667,186.372681 
	C250.028687,187.071533 249.182068,188.786743 248.575592,190.212570 
	C248.044037,191.462265 248.106827,192.964752 247.803223,195.078598 
	C242.982040,191.324677 239.279999,191.216599 236.862885,196.854355 
	C236.628723,197.400497 235.460434,197.626419 234.681992,197.845367 
	C230.775665,198.944092 227.115097,199.683731 224.187927,203.505188 
	C222.222931,206.070541 217.612091,206.533646 214.300598,208.171036 
	C212.253571,209.183182 210.292480,210.473450 208.521622,211.919128 
	C204.143326,215.493469 197.413284,214.765579 192.701904,211.443115 
	C188.462814,208.453690 183.252701,206.866562 178.568741,204.469696 
	C176.777130,203.552856 175.278625,202.074570 173.608673,200.906296 
	C170.281097,198.578400 166.927902,196.287064 163.583496,193.983246 
	C163.173553,193.700851 162.788406,193.317139 162.331543,193.177704 
	C149.849976,189.368439 140.724228,179.742508 129.289368,174.139099 
	C124.213539,171.651794 118.976494,169.494675 113.884186,167.039276 
	C111.982376,166.122284 110.307457,164.744476 108.488144,163.644531 
	C105.146034,161.623947 101.985237,158.695892 98.362282,157.895111 
	C93.387016,156.795410 91.233215,152.791855 89.700249,149.571060 
	C88.057770,146.120163 89.160164,141.470657 94.288399,139.552856 
	C98.369370,138.026703 102.201164,135.834229 106.523560,133.872833 
z"/>
<path fill="#E04D40" opacity="1.000000" stroke="none" 
	d="
M133.980408,232.752960 
	C124.523643,227.809021 115.069794,222.574554 105.704224,217.186615 
	C104.744064,216.634262 103.755165,215.178635 103.726227,214.116379 
	C103.545906,207.497421 103.635315,200.871124 103.635315,193.211609 
	C108.513161,195.927994 112.537331,198.117676 116.513397,200.391449 
	C143.257004,215.685226 170.019180,230.947037 196.688782,246.368912 
	C199.839035,248.190552 202.242691,248.209305 205.350937,246.343857 
	C214.200958,241.032486 223.241592,236.038742 232.563660,230.883270 
	C231.786011,232.188736 230.899445,233.936081 229.476456,234.805450 
	C221.956772,239.399689 214.286072,243.745911 206.700623,248.233704 
	C202.712875,250.592972 199.006775,250.420120 195.003342,247.975937 
	C185.699127,242.295547 176.258224,236.836716 166.823700,231.372711 
	C156.949356,225.653992 147.017334,220.034866 137.111252,214.370926 
	C131.323135,211.061462 125.563965,207.699966 119.736984,204.460464 
	C117.014046,202.946640 114.272598,201.137482 111.317772,200.515274 
	C109.947166,200.226624 107.215218,202.081406 106.532516,203.605850 
	C103.782898,209.745697 106.365372,215.479614 112.483955,218.578201 
	C119.385712,222.073380 126.227623,225.691895 132.998718,229.432083 
	C133.677948,229.807281 133.687881,231.394165 133.980408,232.752960 
z"/>
<path fill="#E34C3C" opacity="1.000000" stroke="none" 
	d="
M191.825684,193.872894 
	C176.259933,185.412216 160.612885,176.662033 145.005920,167.840866 
	C133.169769,161.150970 121.384666,154.370712 108.508537,147.020874 
	C126.002724,137.025955 142.637527,127.522041 159.625916,117.994492 
	C155.870148,121.283730 151.991623,124.952087 147.587906,127.811615 
	C142.987350,130.798965 137.879669,133.004730 133.000626,135.565384 
	C132.717834,135.713791 132.271851,135.990677 132.280502,136.191437 
	C132.590530,143.367859 126.743263,140.732941 123.257423,141.979095 
	C120.250008,143.054184 117.393959,144.552673 114.470985,145.863968 
	C114.452286,146.390228 114.433594,146.916489 114.414894,147.442749 
	C118.434326,149.888977 122.400345,152.428711 126.484489,154.761658 
	C134.603088,159.399185 142.787354,163.921722 150.940872,168.498199 
	C151.228195,168.659500 151.450165,168.998230 151.747620,169.071564 
	C160.054489,171.119324 165.663773,177.702881 172.863342,181.596405 
	C177.944839,184.344482 182.589005,189.039841 189.265823,185.677917 
	C189.793518,185.412231 190.762878,186.023712 192.205704,186.408585 
	C190.494080,187.580200 189.335724,188.373093 188.192322,189.155746 
	C189.506027,190.774155 190.633820,192.163498 191.825684,193.872894 
z"/>
<path fill="#E54A3B" opacity="1.000000" stroke="none" 
	d="
M175.893158,292.721436 
	C162.222687,285.345459 148.460251,277.674927 134.756256,269.901398 
	C123.198166,263.345093 111.656876,256.755524 100.219910,249.991699 
	C96.937859,248.050690 93.846237,248.576828 92.593094,251.470444 
	C91.447800,254.115021 90.610924,257.902496 94.836540,259.996155 
	C98.994102,262.056152 102.911987,264.599854 107.164406,267.170959 
	C100.381035,267.719452 95.524818,263.300415 90.367500,259.581726 
	C89.897980,259.243164 89.579994,258.462585 89.503891,257.848541 
	C89.060425,254.270599 88.710243,250.681076 88.379272,247.571976 
	C90.521713,247.241730 93.143211,246.804306 95.775627,246.447433 
	C96.915199,246.292953 98.297112,245.866058 99.192207,246.314636 
	C103.769966,248.608826 108.205849,251.183884 112.728050,253.591751 
	C117.074501,255.906036 121.337502,258.460571 125.893196,260.262085 
	C128.075043,261.124878 130.408646,260.851593 130.620743,264.108734 
	C130.673721,264.922455 132.008804,265.942139 132.973862,266.356171 
	C136.864975,268.025574 140.848434,269.478638 144.782196,271.050598 
	C145.690720,271.413635 146.797150,271.715607 147.373077,272.410095 
	C153.704834,280.045410 163.384674,282.650879 171.025757,288.295044 
	C172.712219,289.540741 174.230682,291.013885 175.893158,292.721436 
z"/>
<path fill="#E04D40" opacity="1.000000" stroke="none" 
	d="
M288.836700,198.752899 
	C294.649841,195.246857 300.388062,191.606705 306.311890,188.298904 
	C308.783630,186.918701 309.889648,185.408051 309.849426,182.476135 
	C309.689850,170.837021 309.827972,159.194183 309.770844,147.553146 
	C309.742554,141.785370 305.953949,139.679123 300.890900,142.569687 
	C280.828125,154.023895 260.782104,165.507492 240.374359,176.782043 
	C240.014801,176.410782 240.010773,176.237717 240.194305,175.800110 
	C240.610855,174.715836 240.839844,173.896103 241.068832,173.076370 
	C241.068832,173.076370 241.080032,173.032516 241.254089,172.901276 
	C241.676407,172.570450 241.873428,172.329041 242.019180,172.045807 
	C242.019180,172.045807 242.037247,172.093552 242.438828,172.087311 
	C245.573654,170.758728 248.306900,169.436401 251.358002,168.033478 
	C252.795807,167.315109 253.915741,166.677353 255.043915,166.044556 
	C255.052155,166.049484 255.080002,166.067780 255.080002,166.067780 
	C255.080002,166.067780 255.529144,166.059235 255.956955,165.900146 
	C256.637238,165.526764 256.859375,165.284637 257.051178,165.014694 
	C257.314026,164.862915 257.553497,164.680511 258.266632,164.232727 
	C263.512604,161.011917 268.261597,158.025833 273.010590,155.039795 
	C277.792145,152.380066 282.581696,149.734558 287.352356,147.055496 
	C290.471130,145.304108 293.562531,143.504135 297.147400,141.360199 
	C298.111298,140.690063 298.593933,140.385635 299.433655,140.075592 
	C302.499115,140.089920 305.207520,140.109848 307.915955,140.129791 
	C309.212891,141.541153 310.509827,142.952515 311.877991,145.148819 
	C311.955322,156.948196 311.961426,167.962631 311.967560,178.977066 
	C312.115204,183.180756 312.214020,187.368607 307.757996,190.640106 
	C303.804565,192.669113 300.402039,194.315918 296.999542,195.962738 
	C296.489899,196.213425 295.980225,196.464096 294.917236,197.041931 
	C292.521484,197.830353 290.679077,198.291626 288.836700,198.752899 
z"/>
<path fill="#E04D40" opacity="1.000000" stroke="none" 
	d="
M92.022774,178.256622 
	C92.249458,191.987305 91.989357,205.627167 92.235580,219.257874 
	C92.268448,221.077209 94.496735,223.488403 96.330841,224.549088 
	C124.541473,240.863983 152.855682,256.999786 181.143143,273.181854 
	C181.719833,273.511780 182.264587,273.897491 183.005875,274.549469 
	C179.514206,273.491119 175.608612,272.564819 172.213440,270.706146 
	C163.777161,266.087738 155.647247,260.913239 147.261017,256.199158 
	C131.036255,247.078918 114.700806,238.155655 98.462708,229.058868 
	C96.166290,227.772385 93.979935,226.156754 92.082306,224.338898 
	C90.867149,223.174820 89.523338,221.359543 89.523758,219.836548 
	C89.527061,207.859283 89.840927,195.882126 90.238480,183.199036 
	C90.562805,181.938370 90.707771,181.383591 90.852737,180.828796 
	C90.870186,180.425568 90.887634,180.022339 90.952042,179.079803 
	C90.999008,178.540512 91.019012,178.063660 91.019012,178.063660 
	C91.244179,178.096741 91.469337,178.129837 92.022774,178.256622 
z"/>
<path fill="#E04D40" opacity="1.000000" stroke="none" 
	d="
M224.320038,271.977173 
	C239.800644,262.686737 255.664062,253.403503 271.566345,244.187256 
	C279.998322,239.300446 288.497772,234.530029 298.071014,229.078247 
	C298.071014,237.089172 298.768433,244.189407 297.685333,251.006805 
	C297.315979,253.331604 292.470764,254.945328 289.315704,256.926086 
	C288.902405,254.634384 289.054810,252.727158 292.324371,252.728119 
	C293.380737,252.728424 295.233582,251.107391 295.354889,250.068420 
	C295.852692,245.804642 295.942291,241.479416 295.946320,237.176590 
	C295.949036,234.271210 294.182861,233.734329 291.934875,235.095169 
	C287.005035,238.079437 282.267517,241.392487 277.261810,244.237671 
	C270.084900,248.316910 262.704742,252.036972 255.481049,256.036285 
	C252.463272,257.707031 249.665970,259.771515 246.690506,261.524689 
	C244.504730,262.812592 242.227295,263.960205 239.928894,265.038544 
	C234.879715,267.407440 229.791367,269.692780 224.320038,271.977173 
z"/>
<path fill="#E74738" opacity="1.000000" stroke="none" 
	d="
M293.733582,181.995117 
	C276.728058,192.132401 259.408752,202.242706 242.054352,212.292450 
	C234.013550,216.948822 225.904434,221.487198 217.472046,226.118256 
	C218.152237,224.630356 218.843384,222.518936 220.279373,221.675262 
	C227.220901,217.596878 234.382095,213.894012 241.410751,209.960342 
	C242.366608,209.425369 243.090088,208.397751 243.779663,207.490662 
	C244.269882,206.845825 244.328827,205.618698 244.911148,205.338074 
	C250.142685,202.817078 255.466324,200.488281 260.723206,198.018539 
	C263.528503,196.700592 266.333099,195.348358 269.002838,193.781311 
	C275.763672,189.812912 282.398254,185.626404 289.216522,181.762146 
	C290.247467,181.177872 291.991333,181.851547 293.733582,181.995117 
z"/>
<path fill="#E04D40" opacity="1.000000" stroke="none" 
	d="
M268.063293,233.147827 
	C246.450104,245.626175 224.870346,258.163086 203.195297,270.533081 
	C198.893326,272.988190 196.367432,268.391205 192.764069,266.919983 
	C194.149597,266.974243 195.771057,267.584320 197.356171,267.501160 
	C200.397964,267.341614 203.878418,267.626984 206.372833,266.260254 
	C220.466995,258.537811 234.291687,250.325531 248.273453,242.395233 
	C254.549835,238.835358 260.977875,235.542847 267.678375,232.342834 
	C268.034210,232.753677 268.048737,232.950745 268.063293,233.147827 
z"/>
<path fill="#DE5143" opacity="1.000000" stroke="none" 
	d="
M268.408875,233.067276 
	C268.048737,232.950745 268.034210,232.753677 267.996643,232.260849 
	C273.685272,228.375732 279.417236,224.818237 285.101959,221.186768 
	C289.503967,218.374710 293.614624,214.967514 298.305359,212.799850 
	C301.010956,211.549576 304.956970,211.330933 307.684753,212.373917 
	C309.445007,213.046921 310.865936,216.812271 310.965576,219.251923 
	C311.467560,231.545425 311.535767,243.858444 311.599396,256.165405 
	C311.606232,257.485352 310.970581,259.469299 309.995728,260.022675 
	C304.987030,262.865875 299.769897,265.342041 294.232788,267.909180 
	C298.071472,265.301849 302.463531,262.952637 306.454346,260.051392 
	C308.020813,258.912598 309.579163,256.558899 309.621918,254.723068 
	C309.900238,242.776077 309.813782,230.819000 309.733856,218.865967 
	C309.697449,213.423218 306.338470,211.548874 301.608398,214.234344 
	C290.642792,220.460007 279.704071,226.732956 268.408875,233.067276 
z"/>
<path fill="#E04D40" opacity="1.000000" stroke="none" 
	d="
M192.366714,266.203064 
	C173.600723,255.953323 154.896484,245.339523 136.006439,234.436722 
	C141.489304,235.130493 146.326752,237.029770 151.167740,240.875107 
	C157.810638,246.151703 166.162155,249.251907 173.692520,253.444534 
	C179.795944,256.842712 185.781281,260.454742 191.770493,264.052643 
	C192.194489,264.307343 192.218475,265.227997 192.366714,266.203064 
z"/>
<path fill="#E74738" opacity="1.000000" stroke="none" 
	d="
M216.740753,226.108429 
	C212.340012,229.051758 207.625214,232.131317 202.679642,234.779922 
	C201.577393,235.370239 199.461487,234.830734 198.160461,234.147964 
	C193.752548,231.834625 189.500854,229.223618 185.024323,226.427322 
	C189.206726,226.972153 193.537567,228.377457 197.906281,228.507111 
	C202.579971,228.645859 207.293777,227.617065 211.980545,227.022827 
	C213.450668,226.836441 214.890015,226.407242 216.740753,226.108429 
z"/>
<path fill="#E04D40" opacity="1.000000" stroke="none" 
	d="
M270.905060,267.000549 
	C256.357849,275.795593 241.553329,284.406769 226.391785,293.043671 
	C229.907928,290.171783 233.711319,287.174438 237.672577,284.402740 
	C242.227371,281.215698 246.708160,277.819458 251.609695,275.257538 
	C257.749084,272.048615 264.283722,269.595856 270.905060,267.000549 
z"/>
<path fill="#E04D40" opacity="1.000000" stroke="none" 
	d="
M233.249542,230.912415 
	C245.550323,223.464645 258.239014,216.033707 270.935822,208.616699 
	C273.650909,207.030640 276.395386,205.494965 279.461853,204.210114 
	C279.466187,205.269592 279.134979,206.055023 278.803802,206.840454 
	C273.414886,209.913513 268.102661,213.131760 262.620117,216.027557 
	C253.015259,221.100723 243.305923,225.976044 233.249542,230.912415 
z"/>
<path fill="#E74738" opacity="1.000000" stroke="none" 
	d="
M144.795334,202.884491 
	C133.325867,196.766159 121.824417,190.284485 109.911667,183.349518 
	C109.156548,182.742676 108.812721,182.589142 108.468903,182.435608 
	C108.468903,182.435608 108.469215,182.528046 108.535599,182.161499 
	C108.698975,181.297394 108.795959,180.799835 108.892937,180.302292 
	C112.302704,182.032516 115.700089,183.787750 119.126236,185.484924 
	C121.803177,186.811005 124.515816,188.065033 128.533432,189.980957 
	C128.965805,192.504181 132.187332,193.885071 136.168427,195.374939 
	C139.463394,196.608017 141.929825,200.055038 144.795334,202.884491 
z"/>
<path fill="#E74738" opacity="1.000000" stroke="none" 
	d="
M184.884735,225.785843 
	C171.635422,218.702545 158.389755,211.245453 144.960846,203.499329 
	C146.659088,202.634216 148.540558,202.058121 149.882080,201.647354 
	C151.708176,203.509262 153.031738,205.574234 154.918686,206.660873 
	C163.869400,211.815384 173.009995,216.639648 181.981979,221.758484 
	C183.237091,222.474533 183.933411,224.169968 184.884735,225.785843 
z"/>
<path fill="#DE5143" opacity="1.000000" stroke="none" 
	d="
M195.196411,318.148682 
	C199.518738,320.968872 203.349060,319.720886 207.683548,317.044434 
	C217.543808,310.955872 227.737076,305.406586 238.132050,299.543549 
	C233.334198,304.406097 228.622726,309.641174 221.353790,312.054749 
	C215.808533,313.895996 210.732086,317.262146 205.611313,320.232971 
	C201.518158,322.607605 198.139694,322.563019 195.196411,318.148682 
z"/>
<path fill="#F73A22" opacity="1.000000" stroke="none" 
	d="
M312.291626,179.058990 
	C311.961426,167.962631 311.955322,156.948196 311.962769,145.464615 
	C312.980347,146.662613 314.717773,148.273666 314.850372,150.007446 
	C315.241180,155.117569 314.850372,160.281754 315.042969,165.414368 
	C315.219849,170.128387 315.757233,174.828857 316.190155,180.210754 
	C315.125427,179.892090 313.870544,179.516495 312.291626,179.058990 
z"/>
<path fill="#E54A3B" opacity="1.000000" stroke="none" 
	d="
M217.136368,298.321960 
	C212.461823,301.117340 207.864258,304.058044 203.057480,306.603760 
	C201.886398,307.223938 199.779282,307.027008 198.530533,306.379913 
	C193.981430,304.022644 189.613571,301.315552 184.998596,298.448578 
	C187.204346,298.699615 190.204086,298.524597 191.846954,299.932739 
	C195.400375,302.978363 199.656006,302.215149 203.559814,303.181396 
	C204.242630,303.350433 205.194122,302.309143 206.056351,301.900238 
	C209.454605,300.288696 212.866776,298.706482 216.667694,297.096252 
	C217.061600,297.079132 217.090866,297.117340 217.097290,297.418701 
	C217.114594,297.920685 217.125488,298.121307 217.136368,298.321960 
z"/>
<path fill="#E04D40" opacity="1.000000" stroke="none" 
	d="
M183.190842,275.129486 
	C187.900879,277.391052 192.767273,279.844574 197.426743,282.642670 
	C200.044281,284.214569 202.137283,284.140900 204.728195,282.572174 
	C210.809692,278.889984 217.063995,275.493225 223.604584,271.946381 
	C220.468216,274.705231 217.007538,277.540283 213.457474,280.258636 
	C212.703125,280.836273 211.620132,280.981079 210.693451,281.338043 
	C206.939270,282.784210 202.509506,286.247711 199.576904,285.260376 
	C193.704575,283.283264 188.651764,278.871948 183.190842,275.129486 
z"/>
<path fill="#DE5143" opacity="1.000000" stroke="none" 
	d="
M163.544006,299.816742 
	C173.927795,305.409760 184.361160,311.342957 194.982788,317.560913 
	C194.514923,317.813782 193.752777,317.990631 193.218369,317.719147 
	C182.963303,312.509430 171.447601,309.413666 163.544006,299.816742 
z"/>
<path fill="#E54A3B" opacity="1.000000" stroke="none" 
	d="
M107.531029,267.841370 
	C116.435860,272.692963 125.315468,277.901611 134.245270,283.458130 
	C130.657059,284.543640 128.364578,284.035339 125.400665,280.575256 
	C121.963402,276.562592 115.910759,274.836243 111.121994,271.907196 
	C109.694489,271.034058 108.699158,269.454346 107.531029,267.841370 
z"/>
<path fill="#F83A1F" opacity="1.000000" stroke="none" 
	d="
M272.990021,154.657852 
	C268.261597,158.025833 263.512604,161.011917 258.412354,164.059677 
	C258.176910,156.823029 264.504211,154.834702 269.153870,151.544296 
	C269.571991,151.248413 271.658020,153.309479 272.990021,154.657852 
z"/>
<path fill="#F73921" opacity="1.000000" stroke="none" 
	d="
M279.126373,207.006592 
	C279.134979,206.055023 279.466187,205.269592 279.809143,204.160950 
	C279.820923,203.837753 279.833191,203.883652 280.223389,203.906189 
	C283.672058,203.617630 286.695007,203.252914 287.415009,199.416718 
	C287.415009,199.416718 287.452728,199.353455 287.753021,199.355621 
	C288.330322,199.150421 288.607330,198.943054 288.884369,198.735687 
	C288.884369,198.735703 288.882599,198.803391 288.859650,198.778137 
	C290.679077,198.291626 292.521484,197.830353 294.673706,197.188416 
	C296.253845,199.340210 296.704102,200.948929 293.210541,202.067154 
	C290.767639,202.849060 288.308075,204.771347 286.738770,206.850601 
	C283.086761,211.689331 283.303009,211.852539 279.126373,207.006592 
z"/>
<path fill="#E34C3C" opacity="1.000000" stroke="none" 
	d="
M240.006760,176.064636 
	C240.010773,176.237717 240.014801,176.410782 240.025803,176.843445 
	C230.128815,182.866028 220.224838,188.629013 209.988754,194.478210 
	C210.481277,193.378693 211.043900,191.761032 212.172516,191.076416 
	C220.269028,186.165054 228.480560,181.443283 237.224091,176.374146 
	C238.530655,176.079529 239.268707,176.072083 240.006760,176.064636 
z"/>
<path fill="#DE5143" opacity="1.000000" stroke="none" 
	d="
M239.019928,299.491699 
	C247.657623,294.141907 256.686066,288.898773 266.043610,283.558899 
	C266.120789,284.204559 266.095581,285.325836 265.582977,285.632629 
	C257.714844,290.341003 249.796631,294.966644 241.840240,299.524597 
	C241.219894,299.879974 240.229233,299.588959 239.019928,299.491699 
z"/>
<path fill="#DE5143" opacity="1.000000" stroke="none" 
	d="
M140.186188,287.318024 
	C142.945190,288.291504 145.994888,289.348297 148.807770,290.848999 
	C153.587524,293.399078 158.218140,296.228638 163.140106,299.179932 
	C161.063583,298.869965 158.663086,298.565704 156.475586,297.714233 
	C153.196014,296.437775 149.905457,295.037476 146.922775,293.198151 
	C144.506851,291.708313 142.537674,289.494019 140.186188,287.318024 
z"/>
<path fill="#DE5143" opacity="1.000000" stroke="none" 
	d="
M273.272705,279.939514 
	C279.648682,275.913330 286.416260,271.915253 293.539246,267.872498 
	C294.517578,271.853821 290.887573,272.072083 288.704224,273.188202 
	C283.813751,275.688263 278.691895,277.735779 273.272705,279.939514 
z"/>
<path fill="#E34C3C" opacity="1.000000" stroke="none" 
	d="
M209.050751,194.542709 
	C203.707306,200.483536 197.957748,199.533447 192.010437,194.432983 
	C197.438034,194.236771 203.051651,194.327423 209.050751,194.542709 
z"/>
<path fill="#F73A23" opacity="1.000000" stroke="none" 
	d="
M308.011719,139.791016 
	C305.207520,140.109848 302.499115,140.089920 299.376099,140.031204 
	C298.961517,139.992416 298.844055,139.906799 298.735779,139.790985 
	C298.478485,139.526718 298.315277,139.395920 298.137909,139.282776 
	C301.175201,135.130280 303.564056,134.359390 309.268219,135.888031 
	C308.878113,137.085907 308.492828,138.269089 308.011719,139.791016 
z"/>
<path fill="#E04D40" opacity="1.000000" stroke="none" 
	d="
M288.581543,256.944214 
	C283.889099,259.992462 278.801331,263.024689 273.354004,266.115479 
	C272.915527,264.873932 272.836578,263.573792 272.774658,262.554474 
	C278.028381,260.636505 283.107300,258.782349 288.581543,256.944214 
z"/>
<path fill="#F83922" opacity="1.000000" stroke="none" 
	d="
M251.040161,168.114075 
	C248.306900,169.436401 245.573654,170.758728 242.461761,172.076111 
	C243.173599,169.323471 244.264053,166.575775 245.483063,163.504181 
	C245.986191,163.771027 246.766159,164.184662 247.901474,165.096100 
	C249.170609,166.062195 250.084381,166.530487 251.006989,167.277664 
	C251.023911,167.742401 251.032028,167.928238 251.040161,168.114075 
z"/>
<path fill="#E54A3B" opacity="1.000000" stroke="none" 
	d="
M184.866867,297.828369 
	C182.010071,296.676056 179.150925,295.157532 176.121948,293.346252 
	C178.107727,292.482239 180.263336,291.910980 182.798981,291.239014 
	C183.381485,292.994019 184.123001,295.228058 184.866867,297.828369 
z"/>
<path fill="#F63922" opacity="1.000000" stroke="none" 
	d="
M297.184113,196.219116 
	C300.402039,194.315918 303.804565,192.669113 307.556030,190.917419 
	C305.006317,195.552689 301.027679,197.691116 297.184113,196.219116 
z"/>
<path fill="#E74738" opacity="1.000000" stroke="none" 
	d="
M93.107109,176.035706 
	C95.636505,171.500824 96.956459,171.394745 100.331268,175.729294 
	C97.702850,176.031937 95.404976,176.033829 93.107109,176.035706 
z"/>
<path fill="#DE5143" opacity="1.000000" stroke="none" 
	d="
M267.036774,283.441254 
	C268.493073,282.200165 270.371552,281.066132 272.589905,279.902008 
	C273.041656,283.977600 270.440308,284.045685 267.036774,283.441254 
z"/>
<path fill="#E04D40" opacity="1.000000" stroke="none" 
	d="
M92.940384,176.307114 
	C95.404976,176.033829 97.702850,176.031937 100.425385,176.039185 
	C100.900558,176.495316 100.951057,176.942291 100.978020,177.726410 
	C98.320084,178.130188 95.685692,178.196838 92.675179,178.332016 
	C92.457260,177.793198 92.615456,177.185867 92.940384,176.307114 
z"/>
<path fill="#F83A1F" opacity="1.000000" stroke="none" 
	d="
M250.998169,166.998779 
	C250.084381,166.530487 249.170609,166.062195 248.128326,165.297562 
	C250.259399,165.165573 252.518967,165.329926 254.929276,165.781036 
	C255.080002,166.067780 255.052155,166.049484 254.694214,166.056808 
	C253.223572,166.375687 252.110870,166.687241 250.998169,166.998779 
z"/>
<path fill="#E04D40" opacity="1.000000" stroke="none" 
	d="
M225.641113,293.011719 
	C224.405121,294.149231 222.750137,295.246674 220.800262,296.092102 
	C220.675751,294.937286 220.846146,294.034515 221.016556,293.131714 
	C222.418411,293.078339 223.820282,293.024994 225.641113,293.011719 
z"/>
<path fill="#F83922" opacity="1.000000" stroke="none" 
	d="
M240.194305,175.800110 
	C239.268707,176.072083 238.530655,176.079529 237.425201,176.107132 
	C238.155884,175.117096 239.253983,174.106903 240.710449,173.086548 
	C240.839844,173.896103 240.610855,174.715836 240.194305,175.800110 
z"/>
<path fill="#E54A3B" opacity="1.000000" stroke="none" 
	d="
M220.715607,293.254639 
	C220.846146,294.034515 220.675751,294.937286 220.474915,296.186157 
	C220.444473,296.532257 220.431534,296.532837 220.118896,296.532959 
	C219.370117,296.906311 218.933960,297.279572 218.497803,297.652863 
	C218.497818,297.652863 218.469116,297.743408 218.105423,297.574066 
	C217.524765,297.308899 217.307816,297.213104 217.090866,297.117340 
	C217.090866,297.117340 217.061600,297.079132 217.047272,297.060425 
	C218.160172,295.820343 219.287415,294.598938 220.715607,293.254639 
z"/>
<path fill="#E04D40" opacity="1.000000" stroke="none" 
	d="
M108.478355,180.232513 
	C108.795959,180.799835 108.698975,181.297394 108.489380,182.161606 
	C107.274918,181.966080 106.173050,181.403885 104.887054,180.589523 
	C105.823204,180.279144 106.943489,180.220932 108.478355,180.232513 
z"/>
<path fill="#E74738" opacity="1.000000" stroke="none" 
	d="
M90.645737,180.945175 
	C90.707771,181.383591 90.562805,181.938370 90.254616,182.728363 
	C90.207184,182.329544 90.322960,181.695557 90.645737,180.945175 
z"/>
<path fill="#E94736" opacity="1.000000" stroke="none" 
	d="
M281.997803,122.997330 
	C282.279114,122.627945 282.562561,122.261215 282.846039,121.894501 
	C282.692963,122.217636 282.539856,122.540779 282.196045,122.934158 
	C282.005371,123.004387 282.000000,123.000000 281.997803,122.997330 
z"/>
<path fill="#E74738" opacity="1.000000" stroke="none" 
	d="
M280.678864,174.396271 
	C280.616150,174.563217 280.528442,174.641342 280.440735,174.719467 
	C280.511780,174.582123 280.582825,174.444794 280.678864,174.396271 
z"/>
<path fill="#F73A23" opacity="1.000000" stroke="none" 
	d="
M299.019043,140.036804 
	C298.593933,140.385635 298.111298,140.690063 297.361267,141.097595 
	C297.308899,140.902557 297.523895,140.604416 298.117126,140.113037 
	C298.495361,139.919800 298.844055,139.906799 298.844055,139.906799 
	C298.844055,139.906799 298.961517,139.992416 299.019043,140.036804 
z"/>
<path fill="#E34C3C" opacity="1.000000" stroke="none" 
	d="
M161.609802,116.818260 
	C161.928131,116.980858 161.945648,117.179451 161.977112,117.676041 
	C161.542374,117.997421 161.093674,118.020798 160.309662,118.009506 
	C160.419235,117.601311 160.864120,117.227783 161.609802,116.818260 
z"/>
<path fill="#E04D40" opacity="1.000000" stroke="none" 
	d="
M135.767487,233.965332 
	C135.373825,234.007797 134.800369,233.798111 134.069489,233.319733 
	C134.470612,233.271744 135.029144,233.492462 135.767487,233.965332 
z"/>
<path fill="#E04D40" opacity="1.000000" stroke="none" 
	d="
M102.773575,178.964096 
	C102.375801,179.010056 101.805214,178.800415 101.087662,178.317352 
	C101.494041,178.265442 102.047401,178.486969 102.773575,178.964096 
z"/>
<path fill="#E04D40" opacity="1.000000" stroke="none" 
	d="
M104.650871,180.124649 
	C104.238144,180.166245 103.672913,179.931229 102.962997,179.420105 
	C103.378334,179.378677 103.938347,179.613358 104.650871,180.124649 
z"/>
<path fill="#F83A1F" opacity="1.000000" stroke="none" 
	d="
M256.855530,165.163910 
	C256.859375,165.284637 256.637238,165.526764 256.180756,165.880966 
	C256.182922,165.764206 256.410645,165.528305 256.855530,165.163910 
z"/>
<path fill="#F83922" opacity="1.000000" stroke="none" 
	d="
M241.837402,172.191040 
	C241.873428,172.329041 241.676407,172.570450 241.231567,172.898987 
	C241.216019,172.774185 241.422882,172.543610 241.837402,172.191040 
z"/>
<path fill="#E04D40" opacity="1.000000" stroke="none" 
	d="
M298.735779,139.790985 
	C298.844055,139.906799 298.495361,139.919800 298.323181,139.929977 
	C298.151001,139.940155 298.138397,139.607590 298.138153,139.445190 
	C298.315277,139.395920 298.478485,139.526718 298.735779,139.790985 
z"/>
<path fill="#E74738" opacity="1.000000" stroke="none" 
	d="
M90.937790,178.167877 
	C91.019012,178.063660 90.999008,178.540512 90.981400,178.778473 
	C90.791420,178.784271 90.755684,178.536148 90.937790,178.167877 
z"/>
<path fill="#E04D40" opacity="1.000000" stroke="none" 
	d="
M287.079773,199.482513 
	C286.695007,203.252914 283.672058,203.617630 280.219421,203.888947 
	C282.131744,202.415558 284.438141,200.981934 287.079773,199.482513 
z"/>
<path fill="#E04D40" opacity="1.000000" stroke="none" 
	d="
M218.774017,297.583557 
	C218.933960,297.279572 219.370117,296.906311 220.111938,296.536346 
	C219.961807,296.864532 219.506012,297.189392 218.774017,297.583557 
z"/>
<path fill="#E04D40" opacity="1.000000" stroke="none" 
	d="
M217.097290,297.418701 
	C217.307816,297.213104 217.524765,297.308899 218.058411,297.567322 
	C218.195145,298.015747 217.939896,298.193359 217.372864,298.292358 
	C217.125488,298.121307 217.114594,297.920685 217.097290,297.418701 
z"/>
<path fill="#E04D40" opacity="1.000000" stroke="none" 
	d="
M108.644424,182.671249 
	C108.812721,182.589142 109.156548,182.742676 109.704727,183.089737 
	C109.546043,183.157806 109.182999,183.032349 108.644424,182.671249 
z"/>
<path fill="#E04D40" opacity="1.000000" stroke="none" 
	d="
M288.617554,198.744598 
	C288.607330,198.943054 288.330322,199.150421 287.787659,199.368149 
	C287.798248,199.170197 288.074493,198.961868 288.617554,198.744598 
z"/>
<path fill="#FE3622" opacity="1.000000" stroke="none" 
	d="
M251.006989,167.277664 
	C252.110870,166.687241 253.223572,166.375687 254.685974,166.051880 
	C253.915741,166.677353 252.795807,167.315109 251.358002,168.033463 
	C251.032028,167.928238 251.023911,167.742401 251.006989,167.277664 
z"/>
</svg>