<svg version="1.1" id="Layer_1" xmlns="http://www.w3.org/2000/svg" xmlns:xlink="http://www.w3.org/1999/xlink" x="0px" y="0px"
	 width="100%" viewBox="0 0 1024 1024" enable-background="new 0 0 1024 1024" xml:space="preserve">
<path fill="#000000" opacity="1.000000" stroke="none" 
	d="
M230.869232,647.000000 
	C231.399109,564.021606 232.237915,481.544373 231.791428,399.062378 
	C231.728470,387.431305 230.649780,375.880280 231.638870,364.151794 
	C233.468048,342.461304 239.812805,322.348358 250.775299,303.822327 
	C264.239899,281.067932 282.092072,262.417847 305.859039,250.129639 
	C317.887115,243.910812 330.622345,239.740738 344.140137,237.876022 
	C364.700073,235.039886 385.192810,231.719147 405.743713,228.813904 
	C418.742035,226.976364 431.818268,225.690063 444.816895,223.854416 
	C466.187653,220.836456 487.503632,217.428345 508.880219,214.454453 
	C530.097534,211.502731 551.383850,209.045944 572.598022,206.073135 
	C593.319580,203.169342 613.969299,199.754852 634.685974,196.814148 
	C651.283508,194.458160 667.904602,192.202774 684.568848,190.397980 
	C704.995483,188.185699 724.313843,191.947815 742.208252,202.390320 
	C752.119202,208.173981 762.516968,213.094147 771.894226,219.825439 
	C791.638672,233.998672 803.159302,253.511536 809.316284,276.592834 
	C812.163330,287.265900 813.311401,298.126953 813.297180,309.179199 
	C813.150574,423.004517 813.307373,536.830872 812.872192,650.654907 
	C812.682434,700.283386 792.747009,740.687012 752.707397,770.462585 
	C734.541565,783.971680 713.675842,790.862488 691.195679,793.377686 
	C675.829590,795.096924 660.548157,797.572510 645.228699,799.708496 
	C622.158020,802.925171 599.082153,806.104370 576.018311,809.369080 
	C559.880066,811.653381 543.766357,814.111938 527.627014,816.388367 
	C506.212311,819.408813 484.777405,822.285767 463.362305,825.303650 
	C446.733765,827.646973 430.136108,830.212036 413.499725,832.496277 
	C393.398895,835.256287 373.373291,838.880310 353.101288,839.954590 
	C339.395508,840.680969 325.681458,838.885559 313.158234,832.878357 
	C298.921936,826.049438 284.585480,819.276245 271.694824,809.963928 
	C254.471420,797.521545 243.594818,780.637207 236.629181,760.786011 
	C231.910919,747.339600 231.109634,733.415588 230.881699,719.490479 
	C230.489014,695.500000 230.830139,671.497498 230.869232,647.000000 
M393.394012,807.927124 
	C395.179535,807.538025 396.947906,807.018982 398.753326,806.780762 
	C411.428558,805.107849 424.201599,803.996460 436.771393,801.745239 
	C457.367523,798.056580 478.192352,796.119263 498.856689,792.952148 
	C518.197205,789.988037 537.597046,787.232910 557.022644,784.869751 
	C569.548645,783.346008 582.027893,781.380737 594.497437,779.622620 
	C609.592407,777.494385 624.733521,775.361694 639.825867,773.196838 
	C657.074036,770.722717 674.272217,767.751160 691.618164,765.893127 
	C697.381348,765.275879 703.169067,764.413391 708.790588,763.032043 
	C732.082214,757.308960 750.274963,743.778870 764.570862,724.983032 
	C778.504272,706.664062 786.537292,686.082092 786.745361,662.702942 
	C787.099731,622.886780 786.956177,583.070801 787.448303,543.251343 
	C788.378906,467.950439 788.464722,392.637238 788.504578,317.328949 
	C788.512268,302.886627 786.252808,288.546204 780.673950,274.947876 
	C768.831909,246.083130 739.708984,227.164337 709.162354,229.561661 
	C693.254639,230.810104 677.440308,233.374664 661.623047,235.621307 
	C630.837463,239.994003 600.093262,244.658020 569.306335,249.020966 
	C539.171387,253.291519 508.998474,257.293518 478.853394,261.493561 
	C443.604095,266.404755 408.421265,271.840424 373.107239,276.224243 
	C344.896545,279.726196 321.769470,291.711639 304.028503,313.887207 
	C288.118500,333.774139 279.414673,356.412567 279.269958,382.001709 
	C278.834656,458.974792 279.459839,535.950317 278.487640,612.924011 
	C278.014221,650.408936 278.481445,687.904846 278.283447,725.394531 
	C278.208771,739.536316 280.421295,753.115417 285.272766,766.418579 
	C294.428497,791.523987 323.767822,812.423523 350.452209,812.620850 
	C364.668884,812.726013 378.503052,809.632507 393.394012,807.927124 
z"/>
<path fill="#000000" opacity="1.000000" stroke="none" 
	d="
M605.192871,519.000000 
	C605.173340,540.658508 605.137268,561.817078 605.144470,582.975586 
	C605.146606,589.203186 606.319336,589.948914 612.687744,589.000732 
	C621.058594,587.754395 629.342529,585.738647 637.901184,585.989563 
	C645.402283,586.209595 649.161194,589.864990 649.238586,597.484802 
	C649.341797,607.646606 649.351257,617.811035 649.228821,627.972229 
	C649.192566,630.978760 649.829773,633.463318 652.003723,635.635864 
	C665.541870,649.165405 656.969238,676.594116 634.948059,680.122437 
	C622.054565,682.188354 609.501770,667.083984 613.397705,654.105347 
	C614.643127,649.956726 615.833679,645.735291 618.851868,642.484863 
	C624.319336,636.596558 622.789673,628.984741 623.695435,622.120544 
	C624.352600,617.139893 622.024048,615.931213 616.838989,616.618469 
	C608.425720,617.733704 600.012451,618.850830 591.590698,619.898926 
	C584.838379,620.739197 579.996582,616.545837 578.825623,608.836914 
	C578.577271,607.202087 578.637878,605.512939 578.638733,603.848816 
	C578.664490,550.202698 578.714417,496.556641 578.723999,442.910553 
	C578.726135,431.070435 584.433228,423.044647 597.255127,422.343750 
	C604.118652,421.968597 610.989929,420.268066 617.972290,419.804535 
	C622.755249,419.487061 624.742310,416.392853 624.327698,411.478455 
	C623.823242,405.499115 622.835266,400.134033 618.331543,395.195831 
	C611.745483,387.974487 612.802856,374.599762 619.408142,364.896332 
	C625.465088,355.998505 636.180054,351.887115 646.057434,354.670959 
	C655.121765,357.225647 661.004883,368.468536 658.993042,379.464325 
	C658.140381,384.124390 656.534851,388.594116 653.368469,392.099854 
	C650.656494,395.102509 650.166687,398.336731 650.055603,402.138214 
	C649.768921,411.946533 651.027893,421.803925 649.327148,431.562561 
	C647.981445,439.284210 643.125671,444.010834 635.431274,445.203400 
	C627.053894,446.501862 618.689575,447.960907 610.267273,448.860626 
	C606.048279,449.311340 605.155640,451.240967 605.175171,455.024963 
	C605.284302,476.182770 605.206726,497.341553 605.192871,519.000000 
z"/>
<path fill="#000000" opacity="1.000000" stroke="none" 
	d="
M549.177612,391.000000 
	C549.075623,456.141205 549.273254,520.784851 548.747314,585.422607 
	C548.489868,617.072510 548.618469,648.721436 548.283020,680.368286 
	C548.234863,684.902771 549.078613,688.588135 552.306885,692.065491 
	C560.156982,700.521301 559.892517,710.283752 554.973877,719.880554 
	C550.111084,729.368286 542.363403,735.200989 531.155640,735.324829 
	C521.318542,735.433533 514.147705,727.572937 512.796326,717.609314 
	C511.782379,710.133423 513.346436,703.122742 518.637268,697.208496 
	C521.605713,693.890259 522.707031,689.891479 522.687012,685.262695 
	C522.404236,619.960632 521.903931,554.655945 522.248474,489.356049 
	C522.444519,452.210114 522.397583,415.061981 522.789429,377.917206 
	C522.836853,373.423981 522.004822,369.821960 518.726257,366.224579 
	C511.796844,358.621277 512.434631,349.560242 515.778198,340.539581 
	C519.494873,330.512329 527.361267,325.538971 537.382507,323.365021 
	C543.308289,322.079498 551.835266,326.448425 555.436035,332.716522 
	C561.028259,342.451263 560.157043,352.161102 553.688721,360.834747 
	C550.224365,365.480255 548.836487,369.967926 549.144714,375.510010 
	C549.421753,380.491882 549.187744,385.502228 549.177612,391.000000 
z"/>
<path fill="#000000" opacity="1.000000" stroke="none" 
	d="
M418.615570,648.919922 
	C418.619202,644.600037 418.606964,640.767456 418.627106,636.934937 
	C418.684814,625.940491 424.007996,620.001343 434.968597,618.697144 
	C442.723267,617.774475 450.467529,616.739746 458.239532,615.996399 
	C462.737732,615.566162 462.936981,612.587708 462.927063,609.239624 
	C462.895935,598.742798 462.803802,588.245483 462.867859,577.749146 
	C463.015259,553.595337 464.207062,529.459412 463.960205,505.293579 
	C463.880768,497.516998 462.370087,489.835571 463.607208,481.916443 
	C464.499786,476.202881 461.872559,474.620300 456.095032,475.519897 
	C448.540985,476.696045 440.986633,477.870209 433.430267,479.031433 
	C425.230438,480.291565 418.895691,475.218933 418.735565,466.875488 
	C418.540558,456.714813 418.626373,446.546509 418.747925,436.383392 
	C418.785736,433.221069 418.074005,430.664825 415.840088,428.250458 
	C408.697388,420.530731 408.380463,411.342499 411.759003,402.144989 
	C415.549072,391.827118 423.155548,385.384888 434.379395,384.323456 
	C445.890747,383.234833 456.188538,394.878326 455.073822,407.341949 
	C454.526489,413.461700 452.682953,419.220398 448.555847,423.792725 
	C445.832458,426.809906 444.983887,429.971680 445.261078,433.797302 
	C445.429199,436.117920 445.287903,438.460754 445.290222,440.793610 
	C445.297516,448.073853 446.078125,448.874695 453.363617,447.935883 
	C459.455566,447.150909 465.506012,446.042542 471.573059,445.066132 
	C474.716156,444.560272 477.908508,444.217865 481.015900,444.906860 
	C486.491730,446.120880 489.330048,450.078278 489.331360,456.933533 
	C489.342133,513.088501 489.317444,569.243652 489.175842,625.398376 
	C489.150818,635.322937 483.534180,640.471680 471.734619,642.181274 
	C464.332153,643.253784 456.933533,644.372314 449.507263,645.251526 
	C446.433136,645.615479 445.105896,646.947388 445.093750,650.040405 
	C445.069061,656.324036 445.111237,661.958069 449.793274,667.585327 
	C459.744659,679.545715 452.460785,700.767944 437.155579,707.076294 
	C429.399719,710.273071 421.738403,710.277649 415.767334,704.204163 
	C409.542480,697.872559 406.770844,689.901855 409.948700,680.853394 
	C410.715393,678.670288 411.086487,676.130249 412.463898,674.417297 
	C418.450409,666.972229 418.899872,658.312256 418.615570,648.919922 
z"/>
<path fill="#000000" opacity="1.000000" stroke="none" 
	d="
M347.859375,550.117676 
	C354.574677,537.270508 367.987488,530.663879 378.492737,536.659363 
	C386.185333,541.049683 392.961761,542.375610 401.369080,540.267090 
	C408.075134,538.585266 415.203674,538.666748 422.080841,537.566467 
	C428.821716,536.488037 434.160370,537.920959 436.709106,542.127441 
	C439.732361,547.117065 438.891266,555.050415 434.800323,559.910461 
	C432.221405,562.974365 428.917114,564.713013 424.957062,565.287048 
	C413.444275,566.955688 401.953491,568.794128 390.414337,570.251343 
	C386.965240,570.686951 385.207611,572.740662 383.291351,575.089294 
	C376.890320,582.934692 366.085907,585.927734 357.266449,582.397217 
	C349.286499,579.202881 343.524994,569.284485 344.956665,560.519043 
	C345.511688,557.120728 346.009430,553.599854 347.859375,550.117676 
z"/>
<path fill="#000000" opacity="1.000000" stroke="none" 
	d="
M691.417358,529.013306 
	C689.846436,528.311707 688.343445,527.992615 687.527405,527.067444 
	C682.553589,521.429016 676.341919,522.644409 670.092102,523.571350 
	C661.534851,524.840393 652.983948,526.212708 644.386658,527.133423 
	C635.859253,528.046631 632.019897,525.723145 630.285461,519.423645 
	C628.372314,512.475464 631.840454,503.843231 638.000793,501.067627 
	C640.981079,499.724823 644.057495,498.554749 647.566589,498.607544 
	C654.548950,498.712616 661.238586,496.393616 668.123901,495.532257 
	C669.898132,495.310303 671.648132,494.566833 673.494568,494.683197 
	C678.980286,495.028992 682.918091,492.590393 686.350708,488.422363 
	C693.064514,480.269897 703.854980,478.386017 712.903259,483.409363 
	C721.319275,488.081696 725.243347,498.770172 722.363037,508.488373 
	C718.874756,520.257935 711.677673,527.744629 699.202332,529.704163 
	C696.602234,530.112488 694.272888,529.197693 691.417358,529.013306 
z"/>
</svg>